#!OML:ASF H:\Dans Jumps\Project 1\Capture day 1\Session 1\subject.ASF
:FULLY-SPECIFIED
:DEGREES
376
root 0.491843 16.8915 -2.6853 8.2643 0.373176 -1.61327
lowerback 5.11292 -0.86278 -0.720926
upperback 6.20189 -1.22417 2.38235
thorax 3.60846 -0.699612 2.88915
lowerneck -13.2068 0.711342 -0.572948
upperneck 31.8509 1.50788 -1.05818
head 12.7977 0.450578 -0.0889756
rclavicle 2.98177e-016 5.1684e-015
rhumerus -19.3245 -15.0397 -82.6287
rradius 22.4813
rwrist 33.4522
rhand -21.2096 -24.9411
rfingers 7.12502
rthumb 5.17202 -54.858
lclavicle 2.98177e-016 5.1684e-015
lhumerus -15.3421 -5.92184 90.8968
lradius 16.332
lwrist 4.85047
lhand -28.2493 -7.34651
lfingers 7.12502
lthumb -1.62668 22.627
rfemur -29.793 -4.15027 20.5599
rtibia 46.0043
rfoot -20.5767 -9.88769
rtoes 4.95239
lfemur -31.3619 6.95213 -17.6902
ltibia 43.4746
lfoot -19.8085 1.25454
ltoes -5.04616
377
root 0.495588 16.89 -2.68556 8.2451 0.366801 -1.62027
lowerback 5.10626 -0.861561 -0.719692
upperback 6.21017 -1.22269 2.38094
thorax 3.62072 -0.698979 2.88682
lowerneck -13.181 0.710694 -0.600812
upperneck 31.8264 1.50614 -1.03461
head 12.7815 0.449869 -0.0753766
rclavicle 2.68359e-015 -1.27222e-014
rhumerus -19.3235 -15.0423 -82.6368
rradius 22.4734
rwrist 33.4694
rhand -21.1966 -24.9606
rfingers 7.12502
rthumb 5.18449 -54.8772
lclavicle 2.68359e-015 -1.27222e-014
lhumerus -15.2877 -5.97753 90.9041
lradius 16.3742
lwrist 4.8837
lhand -28.2507 -7.37687
lfingers 7.12502
lthumb -1.62804 22.5967
rfemur -29.7813 -4.19007 20.5548
rtibia 46.0204
rfoot -20.5942 -9.85021
rtoes 4.91567
lfemur -31.3583 6.97879 -17.6999
ltibia 43.5065
lfoot -19.8137 1.20143
ltoes -4.914
378
root 0.499241 16.8885 -2.68578 8.2247 0.360409 -1.62307
lowerback 5.10384 -0.860888 -0.723227
upperback 6.21642 -1.22196 2.37847
thorax 3.6286 -0.698832 2.88617
lowerneck -13.1683 0.709103 -0.621156
upperneck 31.8154 1.50326 -1.01692
head 12.7738 0.448606 -0.0654828
rclavicle 2.0276e-014 1.59028e-015
rhumerus -19.3199 -15.0527 -82.6436
rradius 22.4609
rwrist 33.495
rhand -21.1877 -24.9801
rfingers 7.12502
rthumb 5.19309 -54.8965
lclavicle 2.0276e-014 1.59028e-015
lhumerus -15.2342 -6.0035 90.9081
lradius 16.4172
lwrist 4.89706
lhand -28.2809 -7.48405
lfingers 7.12502
lthumb -1.65724 22.4893
rfemur -29.7674 -4.22959 20.5455
rtibia 46.0354
rfoot -20.6112 -9.81437
rtoes 4.87701
lfemur -31.3516 7.00212 -17.7135
ltibia 43.5346
lfoot -19.8156 1.14356
ltoes -4.76557
379
root 0.502697 16.8872 -2.68602 8.20477 0.353734 -1.63059
lowerback 5.10587 -0.859974 -0.723224
upperback 6.21813 -1.22076 2.37759
thorax 3.62917 -0.69824 2.88526
lowerneck -13.1455 0.704357 -0.647475
upperneck 31.8019 1.49517 -0.992926
head 12.7628 0.445226 -0.0529248
rclavicle -7.25564e-015 2.10712e-014
rhumerus -19.3194 -15.0739 -82.6466
rradius 22.445
rwrist 33.5295
rhand -21.1836 -24.9981
rfingers 7.12502
rthumb 5.19711 -54.9144
lclavicle -7.25564e-015 2.10712e-014
lhumerus -15.1876 -6.01276 90.9127
lradius 16.461
lwrist 4.91817
lhand -28.2939 -7.56798
lfingers 7.12502
lthumb -1.66975 22.4052
rfemur -29.7528 -4.26109 20.542
rtibia 46.0483
rfoot -20.6256 -9.78517
rtoes 4.84465
lfemur -31.3445 7.02403 -17.7205
ltibia 43.5593
lfoot -19.8151 1.08094
ltoes -4.61504
380
root 0.506074 16.8862 -2.6861 8.18337 0.34478 -1.63611
lowerback 5.10934 -0.858802 -0.724824
upperback 6.21937 -1.2192 2.37508
thorax 3.62841 -0.697478 2.88358
lowerneck -13.1363 0.701041 -0.658958
upperneck 31.8045 1.4902 -0.98317
head 12.7618 0.442922 -0.0479377
rclavicle -1.39149e-015 1.51076e-014
rhumerus -19.3195 -15.0938 -82.652
rradius 22.4322
rwrist 33.5606
rhand -21.1793 -25.0225
rfingers 7.12502
rthumb 5.20123 -54.9387
lclavicle -1.39149e-015 1.51076e-014
lhumerus -15.1419 -6.00037 90.9143
lradius 16.5045
lwrist 4.93752
lhand -28.2828 -7.61539
lfingers 7.12502
lthumb -1.65905 22.3579
rfemur -29.7341 -4.28552 20.5362
rtibia 46.058
rfoot -20.6391 -9.76134
rtoes 4.80969
lfemur -31.3323 7.04271 -17.7284
ltibia 43.58
lfoot -19.813 1.01914
ltoes -4.46362
381
root 0.509347 16.8854 -2.68607 8.1617 0.336594 -1.63854
lowerback 5.11336 -0.858144 -0.729035
upperback 6.21922 -1.21833 2.37144
thorax 3.62595 -0.697111 2.88221
lowerneck -13.1275 0.697776 -0.664377
upperneck 31.8114 1.48573 -0.97963
head 12.7627 0.440717 -0.0463288
rclavicle -1.68967e-015 3.18055e-015
rhumerus -19.3205 -15.1163 -82.6579
rradius 22.4199
rwrist 33.5916
rhand -21.1784 -25.0479
rfingers 7.12502
rthumb 5.2021 -54.9641
lclavicle -1.68967e-015 3.18055e-015
lhumerus -15.1003 -5.98907 90.9183
lradius 16.5497
lwrist 4.98297
lhand -28.2307 -7.55452
lfingers 7.12502
lthumb -1.60871 22.4192
rfemur -29.7122 -4.30334 20.5267
rtibia 46.0641
rfoot -20.6493 -9.74508
rtoes 4.77191
lfemur -31.317 7.05714 -17.7387
ltibia 43.597
lfoot -19.8099 0.959644
ltoes -4.31998
382
root 0.512521 16.8849 -2.68593 8.14078 0.327471 -1.64127
lowerback 5.11648 -0.857718 -0.732507
upperback 6.21797 -1.21773 2.36739
thorax 3.62284 -0.696823 2.88001
lowerneck -13.1211 0.696193 -0.660465
upperneck 31.825 1.48473 -0.98661
head 12.7671 0.439708 -0.0498886
rclavicle 5.26779e-015 1.51076e-014
rhumerus -19.3198 -15.1409 -82.6651
rradius 22.4059
rwrist 33.6218
rhand -21.1822 -25.0695
rfingers 7.12502
rthumb 5.19844 -54.9858
lclavicle 5.26779e-015 1.51076e-014
lhumerus -15.0601 -5.98049 90.9244
lradius 16.5948
lwrist 5.05367
lhand -28.1405 -7.39773
lfingers 7.12502
lthumb -1.52159 22.5766
rfemur -29.6889 -4.31016 20.5172
rtibia 46.0665
rfoot -20.656 -9.73709
rtoes 4.73281
lfemur -31.3002 7.06939 -17.7479
ltibia 43.6108
lfoot -19.8061 0.906523
ltoes -4.19427
383
root 0.515578 16.8844 -2.68583 8.12279 0.320268 -1.64495
lowerback 5.11754 -0.857901 -0.733157
upperback 6.216 -1.21783 2.36212
thorax 3.62005 -0.696736 2.87492
lowerneck -13.114 0.695525 -0.650038
upperneck 31.8381 1.48454 -0.997532
head 12.7712 0.43933 -0.0559904
rclavicle 9.93923e-017 -1.63003e-014
rhumerus -19.3152 -15.1746 -82.6747
rradius 22.3906
rwrist 33.6546
rhand -21.1872 -25.0909
rfingers 7.12502
rthumb 5.19356 -55.0073
lclavicle 9.93923e-017 -1.63003e-014
lhumerus -15.0171 -5.97802 90.9296
lradius 16.6409
lwrist 5.13037
lhand -28.0732 -7.24911
lfingers 7.12502
lthumb -1.45664 22.7257
rfemur -29.6672 -4.30842 20.5087
rtibia 46.0663
rfoot -20.6596 -9.73781
rtoes 4.69274
lfemur -31.286 7.07785 -17.7551
ltibia 43.6231
lfoot -19.8026 0.859361
ltoes -4.08773
